# xmcd
#
# Track frame offsets:
#	150
#	29420
#	60688
#	103080
#	121515
#	182531
#	229904
#	250508
#	309918
#
# Disc length: 4399 seconds
#
# Revision: 0
# Processed by: cddbd v1.5.2PL0 Copyright (c) Steve Scherf et al.
# Submitted via: audiograbber 1.83.01
#
DISCID=67112d09
DTITLE=Grateful Dead - 94-07-20 Deer Creek Music Centre, Noblesville IN
DYEAR=1900
DGENRE=
TTITLE0=Here Comes Sunshine
TTITLE1=Corrina
TTITLE2=Matilda
TTITLE3=Drums
TTITLE4=Space
TTITLE5=Uncle John's Band
TTITLE6=I Need A Miracle
TTITLE7=Morning Dew
TTITLE8=Johnny B Goode
EXTD=
EXTT0=
EXTT1=
EXTT2=
EXTT3=
EXTT4=
EXTT5=
EXTT6=
EXTT7=
EXTT8=
PLAYORDER=
